<svg version="1.1" viewBox="0.0 0.0 768.0 768.0" fill="none" stroke="none" stroke-linecap="square" stroke-miterlimit="10" xmlns:xlink="http://www.w3.org/1999/xlink" xmlns="http://www.w3.org/2000/svg"><clipPath id="p.0"><path d="m0 0l768.0 0l0 768.0l-768.0 0l0 -768.0z" clip-rule="nonzero"/></clipPath><g clip-path="url(#p.0)"><path fill="#000000" fill-opacity="0.0" d="m0 0l768.0 0l0 768.0l-768.0 0z" fill-rule="evenodd"/><path fill="#b95c3a" fill-opacity="0.3" d="m594.39435 84.40488l144.0 0l0 144.0l-144.0 0z" fill-rule="evenodd"/><path stroke="#b95c3a" stroke-width="24.0" stroke-linejoin="round" stroke-linecap="butt" d="m594.39435 84.40488l144.0 0l0 144.0l-144.0 0z" fill-rule="evenodd"/><path fill="#b95c3a" fill-opacity="0.3" d="m584.80383 385.0991c0 -42.417206 34.385925 -76.80313 76.8031 -76.80313c20.369507 0 39.904663 8.091736 54.308044 22.495117c14.403381 14.403381 22.495117 33.93857 22.495117 54.308014c0 42.417206 -34.385925 76.80316 -76.80316 76.80316c-42.417175 0 -76.8031 -34.385956 -76.8031 -76.80316z" fill-rule="evenodd"/><path stroke="#b95c3a" stroke-width="24.0" stroke-linejoin="round" stroke-linecap="butt" d="m584.80383 385.0991c0 -42.417206 34.385925 -76.80313 76.8031 -76.80313c20.369507 0 39.904663 8.091736 54.308044 22.495117c14.403381 14.403381 22.495117 33.93857 22.495117 54.308014c0 42.417206 -34.385925 76.80316 -76.80316 76.80316c-42.417175 0 -76.8031 -34.385956 -76.8031 -76.80316z" fill-rule="evenodd"/><path fill="#b95c3a" fill-opacity="0.3" d="m580.0007 613.79956l86.39368 -86.39374l86.39374 86.39374l-86.39374 86.39368z" fill-rule="evenodd"/><path stroke="#b95c3a" stroke-width="24.0" stroke-linejoin="round" stroke-linecap="butt" d="m580.0007 613.79956l86.39368 -86.39374l86.39374 86.39374l-86.39374 86.39368z" fill-rule="evenodd"/><path fill="#000000" fill-opacity="0.0" d="m391.7431 385.32483l56.64682 0l0 -228.91339l56.64453 0" fill-rule="evenodd"/><path stroke="#b95c3a" stroke-width="24.0" stroke-linejoin="round" stroke-linecap="butt" d="m391.7431 385.32483l56.64682 0l0 -228.91339l56.64453 0" fill-rule="evenodd"/><path fill="#000000" fill-opacity="0.0" d="m391.7431 385.32483l57.548615 0l0 228.47241l40.246674 0" fill-rule="evenodd"/><path stroke="#b95c3a" stroke-width="24.0" stroke-linejoin="round" stroke-linecap="butt" d="m391.7431 385.32483l57.548615 0l0 228.47241l40.246674 0" fill-rule="evenodd"/><path fill="#000000" fill-opacity="0.0" d="m391.7431 385.32483l52.22049 0l0 0.6929016l52.22046 0" fill-rule="evenodd"/><path stroke="#b95c3a" stroke-width="24.0" stroke-linejoin="round" stroke-linecap="butt" d="m391.7431 385.32483l52.22049 0l0 0.6929016l52.22046 0" fill-rule="evenodd"/><path fill="#000000" fill-opacity="0.0" d="m64.93996 358.0003c0 -48.130463 39.017456 -87.14792 87.147934 -87.14792l101.67264 0c23.113068 0 45.27948 9.18161 61.622894 25.525024c16.343414 16.343414 25.525024 38.509827 25.525024 61.622894l0 56.03485c0 48.130463 -39.017456 87.14792 -87.14792 87.14792l-101.67264 0c-48.130478 0 -87.147934 -39.017456 -87.147934 -87.14792z" fill-rule="evenodd"/><path stroke="#000000" stroke-width="24.0" stroke-linejoin="round" stroke-linecap="butt" d="m64.93996 358.0003c0 -48.130463 39.017456 -87.14792 87.147934 -87.14792l101.67264 0c23.113068 0 45.27948 9.18161 61.622894 25.525024c16.343414 16.343414 25.525024 38.509827 25.525024 61.622894l0 56.03485c0 48.130463 -39.017456 87.14792 -87.14792 87.14792l-101.67264 0c-48.130478 0 -87.147934 -39.017456 -87.147934 -87.14792z" fill-rule="evenodd"/><path fill="#000000" d="m109.867905 370.52603c0 -19.882263 16.117752 -36.0 36.0 -36.0c9.547791 0 18.704529 3.7928467 25.455841 10.544159c6.7513123 6.7513123 10.544159 15.908051 10.544159 25.455841c0 19.882263 -16.117752 36.0 -36.0 36.0c-19.882248 0 -36.0 -16.117737 -36.0 -36.0z" fill-rule="evenodd"/><path stroke="#000000" stroke-width="1.0" stroke-linejoin="round" stroke-linecap="butt" d="m109.867905 370.52603c0 -19.882263 16.117752 -36.0 36.0 -36.0c9.547791 0 18.704529 3.7928467 25.455841 10.544159c6.7513123 6.7513123 10.544159 15.908051 10.544159 25.455841c0 19.882263 -16.117752 36.0 -36.0 36.0c-19.882248 0 -36.0 -16.117737 -36.0 -36.0z" fill-rule="evenodd"/><path fill="#000000" d="m223.97789 370.52603c0 -19.882263 16.117752 -36.0 36.000015 -36.0c9.547791 0 18.704529 3.7928467 25.455841 10.544159c6.7513123 6.7513123 10.544159 15.908051 10.544159 25.455841c0 19.882263 -16.117767 36.0 -36.0 36.0c-19.882263 0 -36.000015 -16.117737 -36.000015 -36.0z" fill-rule="evenodd"/><path stroke="#000000" stroke-width="1.0" stroke-linejoin="round" stroke-linecap="butt" d="m223.97789 370.52603c0 -19.882263 16.117752 -36.0 36.000015 -36.0c9.547791 0 18.704529 3.7928467 25.455841 10.544159c6.7513123 6.7513123 10.544159 15.908051 10.544159 25.455841c0 19.882263 -16.117767 36.0 -36.0 36.0c-19.882263 0 -36.000015 -16.117737 -36.000015 -36.0z" fill-rule="evenodd"/><path fill="#000000" d="m166.92421 175.1613c0 -19.882248 16.117752 -36.0 36.0 -36.0c9.547791 0 18.704529 3.7928467 25.455841 10.544159c6.7513123 6.751297 10.544159 15.908051 10.544159 25.455841c0 19.882248 -16.117752 36.0 -36.0 36.0c-19.882248 0 -36.0 -16.117752 -36.0 -36.0z" fill-rule="evenodd"/><path stroke="#000000" stroke-width="1.0" stroke-linejoin="round" stroke-linecap="butt" d="m166.92421 175.1613c0 -19.882248 16.117752 -36.0 36.0 -36.0c9.547791 0 18.704529 3.7928467 25.455841 10.544159c6.7513123 6.751297 10.544159 15.908051 10.544159 25.455841c0 19.882248 -16.117752 36.0 -36.0 36.0c-19.882248 0 -36.0 -16.117752 -36.0 -36.0z" fill-rule="evenodd"/><path fill="#000000" fill-opacity="0.0" d="m202.92421 165.0256l0 105.82678" fill-rule="evenodd"/><path stroke="#000000" stroke-width="24.0" stroke-linejoin="round" stroke-linecap="butt" d="m202.92421 165.0256l0 105.82678" fill-rule="evenodd"/><path fill="#000000" fill-opacity="0.0" d="m207.0712 253.21458l0 0" fill-rule="evenodd"/><path stroke="#000000" stroke-width="24.0" stroke-linejoin="round" stroke-linecap="butt" d="m207.0712 253.21458l0 0" fill-rule="evenodd"/><path fill="#000000" fill-opacity="0.0" d="m340.90845 338.19095l25.417328 0c14.037598 0 25.417328 21.10257 25.417328 47.13388c0 26.031311 -11.37973 47.13385 -25.417328 47.13385l-25.417328 0z" fill-rule="evenodd"/><path stroke="#000000" stroke-width="24.0" stroke-linejoin="round" stroke-linecap="butt" d="m340.90845 338.19095l25.417328 0c14.037598 0 25.417328 21.10257 25.417328 47.13388c0 26.031311 -11.37973 47.13385 -25.417328 47.13385l-25.417328 0z" fill-rule="evenodd"/><path fill="#000000" fill-opacity="0.0" d="m64.93996 433.15158l-25.41732 0c-14.037601 0 -25.417324 -21.10254 -25.417324 -47.13385c0 -26.031311 11.379724 -47.13385 25.417324 -47.13385l25.41732 0z" fill-rule="evenodd"/><path stroke="#000000" stroke-width="24.0" stroke-linejoin="round" stroke-linecap="butt" d="m64.93996 433.15158l-25.41732 0c-14.037601 0 -25.417324 -21.10254 -25.417324 -47.13385c0 -26.031311 11.379724 -47.13385 25.417324 -47.13385l25.41732 0z" fill-rule="evenodd"/><path fill="#000000" fill-opacity="0.0" d="m236.86157 429.41666c-9.000641 9.000671 -21.20816 14.05719 -33.936996 14.05719c-12.728851 0 -24.936356 -5.0565186 -33.93701 -14.05719l33.93701 -33.93701z" fill-rule="evenodd"/><path fill="#000000" fill-opacity="0.0" d="m236.86157 429.41666c-9.000641 9.000671 -21.20816 14.05719 -33.936996 14.05719c-12.728851 0 -24.936356 -5.0565186 -33.93701 -14.05719" fill-rule="evenodd"/><path stroke="#000000" stroke-width="24.0" stroke-linejoin="round" stroke-linecap="butt" d="m236.86157 429.41666c-9.000641 9.000671 -21.20816 14.05719 -33.936996 14.05719c-12.728851 0 -24.936356 -5.0565186 -33.93701 -14.05719" fill-rule="evenodd"/><path fill="#b95c3a" d="m505.03674 120.940956l79.77692 35.46325l-79.77692 35.463257z" fill-rule="evenodd"/><path fill="#b95c3a" d="m496.18372 350.5538l79.77692 35.463257l-79.77692 35.463257z" fill-rule="evenodd"/><path fill="#b95c3a" d="m489.54395 578.33563l79.77692 35.463257l-79.77692 35.463257z" fill-rule="evenodd"/></g></svg>